<svg xmlns="http://www.w3.org/2000/svg" viewBox="-30.424 -3.433 669.317 75.515"><path d="M42.52 0v24.43H26.71V0H0v67.63h26.71V43.88h15.81v23.75h26.72V0H42.52zm94.18 17.75v49.88h-23.25l-1.19-5.92c-3 3.47-9.21 6.85-17.07 6.85-12.18 0-19.7-5.58-20.13-14.79v-36h24.35v29.34c0 2.87 2.88 5.07 6.51 5.07s6.51-2.2 6.51-5.07V17.75zm43.36 49.88V38.3c0-2.88-2.87-5.08-6.51-5.08s-6.51 2.2-6.51 5.08v29.33h-24.26V17.75h23.25l1.18 5.92c3-3.47 9.22-6.93 17.08-6.93 9.13 0 15.64 3.21 18.52 8.71 4.14-5.33 10.9-8.71 18.85-8.71 12.17 0 19.7 5.66 20 14.88v36h-24.23V38.3c0-2.88-2.87-5.08-6.51-5.08s-6.51 2.2-6.51 5.08v29.33zm126.48 0H281.6l-1.44-4.31a21.48 21.48 0 01-14.63 5.33c-11.58 0-20.29-5.84-20.29-13.87 0-11.75 13.87-14.12 34.66-17.33V33.9c0-1.69-.93-2.88-3.8-2.88-2.7 0-3.55 1.19-3.55 2.88v1.69H248.2v-2.11c0-8.71 12.43-16.74 28.75-16.74s27.3 8.87 27.3 17.58v21.81c0 5.16.85 9.22 2.29 11.5m-31.79-12.09c3.47 0 5.15-1.94 5.15-3.89v-5.58c-6.93 1.27-10.31 2.62-10.31 5.58 0 1.95 1.69 3.89 5.16 3.89m35.33 12.09V17.75h23.34l1.18 5.92c3-3.47 9.22-6.93 17.08-6.93 12.17 0 19.7 5.66 20 14.88v36h-24.23V38.3c0-2.88-2.87-5.08-6.51-5.08s-6.51 2.2-6.51 5.08v29.33zm91.73-19.75v19.75h-24.26V17.75h23.24l1.19 5.92c3.55-4.14 7.69-6.93 19.1-6.93v18.85c-14.41-.57-19.27.87-19.27 12.29m80.48 19.75h-24.94l-1.44-4.31a21.45 21.45 0 01-14.62 5.33c-11.58 0-20.29-5.84-20.29-13.87 0-11.75 13.86-14.12 34.66-17.33V33.9c0-1.69-.93-2.88-3.8-2.88-2.71 0-3.56 1.19-3.56 2.88v1.69h-24.34v-2.11c0-8.71 12.43-16.74 28.74-16.74s27.31 8.87 27.31 17.58v21.81c0 5.16.84 9.22 2.28 11.5M450.5 55.54c3.47 0 5.16-1.94 5.16-3.89v-5.58c-6.93 1.27-10.31 2.62-10.31 5.58 0 1.95 1.69 3.89 5.15 3.89m63.69 13.02c-17.34 0-30.44-11.58-30.44-25.87s13.1-25.95 30.44-25.95c16 0 28.32 9.72 30.26 22.4h-24.26c-.59-5-2.71-6.76-6-6.76-3.89 0-6.18 2.53-6.18 10.31s2.29 10.32 6.18 10.32c3.29 0 5.41-1.78 6-6.77h24.26c-2 12.6-14.29 22.32-30.26 22.32m63.75.09c-17.33 0-30.43-11.67-30.43-26s13.1-25.95 30.43-25.95 30.52 11.66 30.52 25.95c0 1-.08 2-.17 3.05h-36.35c.51 5.41 2.62 7.27 6 7.27a5.2 5.2 0 005.41-3.81h24.18c-3.38 11.16-15 19.45-29.59 19.45m0-36.19c-3 0-5.07 1.52-5.83 5.92h11.75c-.76-4.4-2.79-5.92-5.92-5.92" fill="#17873f"/></svg>